<?xml version="1.0" standalone="no"?>
<!DOCTYPE svg PUBLIC "-//W3C//DTD SVG 20010904//EN"
 "http://www.w3.org/TR/2001/REC-SVG-20010904/DTD/svg10.dtd">
<svg version="1.0" xmlns="http://www.w3.org/2000/svg"
 width="1000.000000pt" height="1000.000000pt" viewBox="0 0 1000.000000 1000.000000"
 preserveAspectRatio="xMidYMid meet">
<metadata>
Created by potrace 1.14, written by Peter Selinger 2001-2017
</metadata>
<g transform="translate(0.000000,1000.000000) scale(0.100000,-0.100000)"
fill="#000000" stroke="none">
<path d="M0 5000 l0 -5000 5000 0 5000 0 0 5000 0 5000 -5000 0 -5000 0 0
-5000z m4397 2680 c17 -10 37 -29 44 -42 15 -27 31 -372 19 -404 -5 -11 -22
-32 -39 -46 -35 -30 -67 -35 -276 -43 -173 -6 -681 -25 -739 -28 l-40 -2 3
-70 c1 -39 6 -144 11 -235 6 -91 10 -218 10 -282 l0 -118 53 0 c28 1 194 7
367 14 338 15 353 14 394 -33 16 -18 21 -44 27 -134 4 -62 8 -116 8 -120 1 -5
36 -8 79 -7 117 2 118 2 152 -27 43 -35 48 -54 51 -172 l3 -101 107 0 107 0
36 -40 36 -40 82 1 c46 0 103 4 127 7 42 7 45 9 58 54 17 61 57 93 130 108 32
6 85 18 118 26 33 9 74 18 90 21 17 3 41 14 54 24 13 11 32 19 43 19 11 0 68
11 126 25 234 53 291 34 364 -125 28 -62 30 -64 44 -45 8 11 22 45 30 75 8 30
21 78 29 107 9 28 17 71 20 96 9 85 34 226 44 245 6 11 8 22 5 24 -2 3 15 25
38 49 32 32 59 49 103 62 59 18 61 18 124 -2 35 -12 82 -21 105 -21 22 0 94
-7 160 -15 170 -21 199 -43 214 -160 l7 -60 60 3 c44 2 67 -2 86 -15 15 -10
57 -39 95 -66 l69 -47 7 45 c8 53 45 108 89 131 22 11 79 17 203 23 95 4 178
11 185 15 6 4 11 34 11 72 0 59 3 67 36 104 21 23 51 44 73 50 50 14 496 29
545 18 78 -18 126 -76 126 -155 0 -68 -4 -67 201 -56 188 10 216 7 253 -25 40
-36 45 -64 56 -311 l11 -243 -26 -44 c-25 -42 -26 -50 -19 -124 6 -78 7 -80
42 -98 71 -37 76 -51 84 -264 4 -105 9 -193 12 -195 6 -6 65 33 86 57 33 37
322 218 453 283 184 92 242 99 268 30 4 -12 9 -96 10 -187 l1 -164 -58 -101
c-52 -90 -119 -197 -149 -238 -8 -11 19 -42 113 -134 84 -82 122 -126 122
-142 0 -12 5 -87 10 -166 12 -169 7 -183 -62 -197 -69 -13 -276 -7 -343 9 -33
9 -109 34 -170 57 -60 23 -132 47 -160 55 -27 7 -75 24 -105 39 -67 31 -72 32
-88 5 -10 -16 -12 -48 -7 -128 21 -373 24 -570 10 -694 -9 -87 -20 -137 -32
-156 -42 -66 -102 -137 -124 -147 -160 -74 -246 -95 -433 -104 -171 -9 -217
-2 -262 41 l-22 21 -35 -38 -34 -38 -139 -7 c-77 -4 -211 -9 -300 -11 -157 -3
-161 -3 -197 22 -38 26 -56 56 -61 106 l-3 29 -89 0 c-49 1 -99 6 -111 13 -17
9 -35 8 -90 -4 -37 -9 -78 -20 -91 -25 -13 -5 -47 -9 -77 -9 -30 0 -101 -9
-157 -20 -57 -11 -120 -20 -140 -20 -28 0 -44 -7 -63 -27 -14 -15 -25 -33 -25
-40 0 -24 -62 -83 -98 -93 -55 -15 -167 -12 -210 5 -20 9 -47 25 -59 37 -20
19 -25 20 -55 7 -20 -8 -67 -14 -118 -13 -85 0 -139 13 -218 53 -20 10 -52 21
-69 24 -18 4 -54 16 -80 28 -56 26 -52 26 -258 10 -445 -33 -548 -33 -750 -1
-33 5 -96 14 -140 20 -43 6 -113 18 -155 27 -107 22 -178 32 -258 37 -38 2
-83 11 -98 19 -16 8 -96 31 -178 51 -81 21 -186 51 -231 67 -77 27 -92 29
-182 24 -54 -3 -146 -7 -204 -9 l-106 -4 -49 -48 c-55 -53 -191 -123 -289
-147 -84 -21 -280 -38 -356 -31 -81 8 -149 30 -270 87 -76 36 -111 60 -162
111 -35 35 -75 85 -87 110 -34 71 -43 68 -36 -10 3 -38 7 -135 9 -216 l2 -148
-32 -31 c-31 -32 -35 -33 -150 -40 -65 -4 -211 -10 -326 -14 l-207 -7 -35 35
c-33 33 -35 40 -35 99 -1 34 -5 162 -10 283 -5 121 -14 335 -19 475 -6 140
-16 374 -22 520 l-13 265 -27 25 c-47 43 -64 104 -78 295 -5 61 -14 123 -20
138 -27 68 -4 207 41 244 29 25 102 43 211 53 61 6 113 13 115 15 4 4 -12 479
-25 731 l-6 121 34 37 c34 36 35 36 138 43 l104 6 -7 121 c-3 67 -8 191 -12
276 l-6 155 36 38 c34 34 42 37 90 37 29 0 74 3 100 6 l46 7 0 40 0 40 -117
-7 c-127 -7 -649 -29 -1149 -47 -292 -11 -312 -11 -338 6 -50 33 -58 63 -63
254 -5 152 -4 181 11 209 33 64 -15 59 927 97 475 19 987 40 1137 46 385 17
356 50 373 -415 11 -314 11 -341 -5 -370 -26 -48 -52 -59 -156 -65 l-95 -6 0
-50 c0 -27 4 -153 9 -280 l8 -230 -30 -28 c-35 -34 -83 -46 -174 -47 l-68 0 0
-38 c0 -22 3 -86 6 -144 l7 -106 88 -4 c77 -4 92 -8 130 -33 48 -34 64 -66 73
-150 5 -43 3 -72 -8 -104 -23 -64 -21 -73 17 -69 l32 3 -3 185 c-1 102 -7 276
-14 387 -12 223 -9 243 44 288 27 23 38 25 125 25 l95 0 -6 123 c-4 67 -13
277 -21 467 -8 190 -17 400 -20 468 l-6 123 38 39 c46 45 12 42 618 65 407 16
835 33 950 38 173 9 200 7 232 -13z"/>
<path d="M3130 6120 c0 -43 0 -43 24 -34 10 4 16 18 16 40 0 27 -4 34 -20 34
-17 0 -20 -7 -20 -40z"/>
<path d="M3576 5868 c-82 -4 -151 -9 -152 -11 -2 -1 -4 -58 -5 -126 l-1 -124
58 -27 c99 -46 134 -99 134 -204 0 -58 -23 -110 -80 -181 -22 -27 -49 -70 -60
-95 -12 -25 -32 -61 -44 -80 -13 -19 -44 -66 -69 -105 -24 -38 -72 -100 -106
-137 l-61 -66 0 -84 c0 -93 8 -108 53 -108 16 0 69 -7 118 -16 85 -16 92 -16
132 1 91 39 126 57 137 71 7 7 20 14 30 14 9 0 53 18 96 40 43 22 85 40 93 40
7 0 29 9 47 20 18 12 41 23 51 25 10 3 40 12 66 21 45 16 48 19 45 48 -3 31
-4 31 -53 28 -84 -5 -133 7 -171 40 -44 39 -59 75 -68 163 -4 39 -16 111 -26
160 -11 50 -24 133 -31 186 -10 89 -10 100 9 142 13 30 31 51 52 62 l32 17
-28 29 c-27 29 -29 35 -32 142 -2 62 -7 114 -10 117 -4 3 -74 2 -156 -2z"/>
<path d="M2590 5189 c0 -5 5 -7 10 -4 6 3 10 8 10 11 0 2 -4 4 -10 4 -5 0 -10
-5 -10 -11z"/>
<path d="M2246 4699 c-49 -4 -92 -11 -96 -16 -9 -10 -28 -119 -35 -203 -4 -36
-9 -73 -11 -82 -7 -23 -2 -23 49 4 23 12 89 40 147 63 l105 42 -3 71 c-5 101
-13 125 -42 127 -14 0 -65 -2 -114 -6z"/>
</g>
</svg>
